<?xml version="1.0" encoding="UTF-8"?>
<svg id="ODC_Favicon" xmlns="http://www.w3.org/2000/svg" width="1074.42" height="1074.25" version="1.1" viewBox="0 0 1074.42 1074.25">
  <!-- Generator: Adobe Illustrator 29.6.1, SVG Export Plug-In . SVG Version: 2.1.1 Build 9)  -->
  <defs>
    <style>
      .st0 {
        fill: #fff;
      }

      .st1 {
        fill: #ef3b42;
      }
    </style>
  </defs>
  <g>
    <path class="st0" d="M537.12,1055.35c-69.97,0-137.83-13.7-201.71-40.72-61.71-26.1-117.13-63.47-164.73-111.07-47.6-47.6-84.97-103.02-111.07-164.73-27.02-63.88-40.72-131.74-40.72-201.71s13.7-137.83,40.72-201.71c26.1-61.71,63.47-117.13,111.07-164.73,47.6-47.6,103.02-84.97,164.73-111.07,63.88-27.02,131.74-40.72,201.71-40.72s137.83,13.7,201.71,40.72c61.71,26.1,117.13,63.47,164.73,111.07,47.6,47.6,84.97,103.02,111.07,164.73,27.02,63.88,40.72,131.74,40.72,201.71s-13.7,137.83-40.72,201.71c-26.1,61.71-63.47,117.13-111.07,164.73-47.6,47.6-103.02,84.97-164.73,111.07-63.88,27.02-131.74,40.72-201.71,40.72Z"/>
    <path class="st1" d="M537.12,37.8c67.42,0,132.81,13.2,194.35,39.22,59.45,25.15,112.86,61.16,158.73,107.02,45.87,45.87,81.88,99.27,107.03,158.73,26.03,61.54,39.22,126.92,39.22,194.35s-13.2,132.81-39.22,194.35c-25.15,59.45-61.16,112.86-107.03,158.73-45.87,45.87-99.27,81.88-158.73,107.03-61.54,26.03-126.92,39.22-194.35,39.22s-132.81-13.2-194.35-39.22c-59.45-25.15-112.86-61.16-158.73-107.03-45.87-45.87-81.88-99.27-107.02-158.73-26.03-61.54-39.22-126.92-39.22-194.35s13.2-132.81,39.22-194.35c25.15-59.45,61.16-112.86,107.02-158.73,45.87-45.87,99.27-81.88,158.73-107.02,61.54-26.03,126.92-39.22,194.35-39.22M537.12,0C240.48,0,0,240.48,0,537.12s240.48,537.12,537.12,537.12,537.12-240.48,537.12-537.12S833.77,0,537.12,0h0Z"/>
  </g>
  <g>
    <path class="st0" d="M1012.63,787.51c-134.79,53.75-267.81,116.48-395.69,186.58l-18.57-36.26c100.33-55.14,205.76-106.46,313.83-152.58,41.19-17.59,82.77-34.41,124.69-50.47,5.41-13.66,10.26-27.59,14.56-41.77-71.79,26.83-142.7,55.86-212.54,87.1l.19.42c-85.78,38.41-172.41,80.44-257.54,124.93l-160.81-316.74c194.94-106.26,398.58-195.83,608.27-268.05-4.66-10.57-9.65-20.95-14.95-31.15-209.86,72.46-413.78,162.12-609.15,268.33l-18.56-36.24c194.79-105.68,398.18-195.03,607.62-267.4-5.99-9.65-12.28-19.11-18.85-28.34-83.74,29.37-166.62,61.51-248.57,96.42l-123.28-280.12-2.15.93C408.76,126.45,220.44,223.45,40.44,331.87c-6.42,15.51-12.13,31.39-17.09,47.59,175.59-108.78,359.56-205.3,546.89-286.93l-32.19,60.07C372.75,227.2,206.17,316.38,42.88,417.68l-19.54-38.19c-4.65,15.19-8.65,30.66-11.96,46.39l244.59,474.89,2.19-1.44c67.59-44.39,136.76-84.08,219.61-129.86l128.3,252.53,2.15-1.22c120.9-68.48,245.89-129.49,374.18-182.85,10.97-16.2,21.07-33.03,30.25-50.42ZM594.98,118.64l94.8,217.38c-100.98,44.14-199.43,91.66-292.79,141.33l197.99-358.71ZM231.6,782.95L57.87,448.5c149.55-92.61,301.24-175.07,450.97-245.16l-167.76,305.44,82.39,160.82c-56.83,30.99-116.64,66.47-187.75,111.32,0,0-2.18,1.04-4.12,2.03ZM382.33,780.12c-40.69,23.92-78.33,47.08-115,70.72l-19.5-37.23c15.29-9.64,30.7-19.2,46.13-28.61l6.75-4.38h0c47.9-29.2,94.2-56.17,137.75-80.24l19.49,36.34c-25.52,14.26-50.68,28.65-75.61,43.4Z"/>
    <path class="st1" d="M341.08,508.78l167.76-305.44c-149.73,70.09-301.42,152.55-450.97,245.16l173.73,334.46c1.94-.99,4.12-2.03,4.12-2.03,71.11-44.85,130.91-80.33,187.75-111.32l-82.39-160.82Z"/>
    <path class="st1" d="M300.7,780.62h0l-6.75,4.38c-15.44,9.42-30.85,18.97-46.13,28.61l19.5,37.23c36.66-23.64,74.31-46.8,115-70.72,24.93-14.75,50.1-29.13,75.61-43.4l-19.49-36.34c-43.54,24.08-89.84,51.04-137.75,80.24Z"/>
    <path class="st1" d="M581.56,905.45c85.14-44.49,171.76-86.51,257.54-124.93l-.19-.42c69.84-31.24,140.75-60.27,212.54-87.1,14.93-49.34,22.97-101.67,22.97-155.88,0-77.02-16.21-150.24-45.39-216.47-209.69,72.23-413.33,161.8-608.27,268.05l160.81,316.74Z"/>
    <path class="st1" d="M598.37,937.83l18.57,36.26c127.88-70.1,260.9-132.83,395.69-186.58,9-17.05,17.1-34.65,24.26-52.73-41.92,16.06-83.5,32.88-124.69,50.47-108.07,46.12-213.49,97.44-313.83,152.58Z"/>
    <path class="st1" d="M404.92,557.84c195.36-106.22,399.28-195.88,609.15-268.33-6.26-12.04-12.97-23.82-20.09-35.3-209.43,72.37-412.83,161.71-607.62,267.4l18.56,36.24Z"/>
    <path class="st1" d="M689.78,336.03l-94.8-217.38-197.99,358.71c93.36-49.67,191.81-97.18,292.79-141.33Z"/>
    <path class="st1" d="M538.04,152.61l32.19-60.07C382.9,174.16,198.93,270.68,23.34,379.46c0,0,0,.02,0,.03l19.54,38.19c163.29-101.3,329.87-190.47,495.16-265.07Z"/>
  </g>
</svg>