<?xml version="1.0" encoding="UTF-8"?>
<svg id="ODC_Ribbon" data-name="ODC Ribbon" xmlns="http://www.w3.org/2000/svg" viewBox="0 0 531.39 168.1">
  <defs>
    <style>
      .cls-1 {
        fill: #231f20;
      }

      .cls-2 {
        fill: #fff;
      }

      .cls-3 {
        fill: #ef3e42;
      }
    </style>
  </defs>
  <path class="cls-2" d="M531.19,94.43c-21.71-13.57-45.04-25.81-69.35-36.39l-.24-.11-13.85,31.49c-57.61-24.44-118.63-36.84-181.38-36.84s-125.23,12.39-182.61,36.84l-13.86-31.49-.24.1C45.74,68.41,22.37,80.65.21,94.43l-.21.13,30.85,59.9.25-.16c7.6-4.99,15.37-9.45,24.69-14.6l14.42,28.39.24-.14c58.88-33.35,126.39-50.97,195.24-50.97s134.52,17.15,195.25,50.97l.24.13,14.41-28.39c8.59,4.75,16.95,9.44,24.69,14.6l.25.16,30.86-59.91-.21-.13v.02Z"/>
  <path class="cls-3" d="M9.02,103.62l19.53,37.6c.22-.11.46-.23.46-.23,7.99-5.04,14.72-9.03,21.11-12.52l-9.26-18.08,18.86-34.34c-16.83,7.88-33.89,17.15-50.7,27.56h0Z"/>
  <path class="cls-3" d="M30.37,144.67l2.19,4.19c4.12-2.66,8.35-5.26,12.93-7.95,2.8-1.66,5.63-3.28,8.5-4.88l-2.19-4.09c-4.9,2.71-10.1,5.74-15.49,9.02h0l-.76.49c-1.74,1.06-3.47,2.13-5.19,3.22h0Z"/>
  <path class="cls-3" d="M434.74,140.93c9.62,4.31,19.26,9.1,28.65,14.23l18.28-35.78c-65.94-35.88-140.62-54.84-215.98-54.84s-150.05,18.96-215.87,54.84l18.08,35.61c9.57-5,19.31-9.73,28.95-14.04l-.02-.05c52.95-23.68,111.34-36.2,168.86-36.2s115.7,12.18,169.05,36.2v.03h0Z"/>
  <path class="cls-3" d="M69.78,158.63l2.09,4.08c14.97-8.21,30.57-15.52,46.36-21.72,47.01-18.48,96.61-27.86,147.46-27.86s100.41,9.36,147.44,27.81v.05c15.93,6.19,31.66,13.48,46.74,21.67l2.11-4.08c-11.5-6.24-23.41-12-35.42-17.11h0c-50.91-21.85-105.03-32.92-160.86-32.92s-110.19,11.38-160.63,32.92c-12.15,5.19-24,10.96-35.28,17.15h-.01Z"/>
  <path class="cls-3" d="M486.85,141.46c4.38,2.57,8.36,5.01,12.13,7.44l2.09-4.18c-1.74-1.09-3.48-2.18-5.23-3.25l-.8-.49h.05c-5.6-3.44-10.68-6.4-15.5-9.03l-2.09,4.08c2.86,1.62,5.72,3.27,8.57,4.94l.85.49h-.08,0Z"/>
  <path class="cls-3" d="M502.53,141c.16.08.32.17.48.26l.11-.22,19.26-37.43c-16.37-10.21-33.42-19.48-50.7-27.56l18.86,34.34-9.15,18.08c6.75,3.73,13.83,7.92,21.06,12.47l.09.06h0Z"/>
  <path class="cls-3" d="M464.89,63.61l3.74,6.86c18.75,8.45,37.48,18.48,55.54,29.68l2.2-4.29c-19.84-12.23-40.52-23.08-61.48-32.26h0Z"/>
  <path class="cls-3" d="M451.33,90.97c11.44,4.95,22.51,10.29,32.91,15.88l-22.25-40.32-10.66,24.44h0Z"/>
  <path class="cls-3" d="M45.95,111.84l2.09,4.07c66.46-36.13,141.72-55.23,217.66-55.23s151.32,19.1,217.66,55.23l2.09-4.07c-66.68-36.24-142.44-55.39-219.08-55.39h-1.23c-76.61,0-152.4,19.16-219.19,55.39h0Z"/>
  <path class="cls-3" d="M69.4,66.53l-22.26,40.33c10.5-5.58,21.56-10.93,32.92-15.89l-10.66-24.44h0Z"/>
  <path class="cls-3" d="M5.13,95.86l2.2,4.29c18.36-11.39,37.09-21.41,55.67-29.8l3.62-6.75c-21.06,9.18-41.74,20.03-61.49,32.26h0Z"/>
  <g>
    <path class="cls-2" d="M25.87,1.68v22.1c0,3.59,0,4.74,4.16,4.74v.8h-15.37v-.8c4.16,0,4.16-1.15,4.16-4.74V1.68h-2.39c-3.36,0-5.23,1.06-6.42,6.24h-.8V0h26.26v7.93h-.8c-1.2-5.18-3.05-6.24-6.42-6.24h-2.39,0Z"/>
    <path class="cls-2" d="M46.99,11.69c1.51-1.68,3.46-3.19,5.85-3.19,4.47,0,5.54,3.37,5.54,8.06v8.1c0,1.99,0,3.85,2.21,3.85v.8h-10.27v-.8c1.99,0,1.99-1.86,1.99-3.85v-8.23c0-2.97,0-5-1.95-5-1.37,0-2.66,1.46-3.37,2.66v10.58c0,1.99,0,3.85,2,3.85v.8h-10.28v-.8c2.21,0,2.21-1.86,2.21-3.85V4.74c0-2.35,0-3.94-2.43-3.94V0h8.5v11.69Z"/>
    <path class="cls-2" d="M69.04,17.05c0-3.23.57-7.04,3.14-7.04,2.75,0,2.75,4.78,2.75,7.04h-5.89ZM80.24,18.55c.09-4.74-2.57-10.05-7.44-10.05-6.06,0-9.47,5.05-9.47,10.72s2.57,10.71,8.63,10.71c4.3,0,6.51-2.57,8.28-6.15l-.71-.49c-1.07,1.68-2.39,3.32-4.56,3.32-4.03,0-5.8-4.83-5.8-8.06h11.07Z"/>
    <path class="cls-2" d="M122.93,9.65h-.79c-1.64-4.83-5.58-8.63-10.85-8.63-7.53,0-9.39,7.62-9.39,13.73s1.46,13.55,9.34,13.55c1.64,0,3.1-.27,4.78-.89v-4.87c0-3.59,0-4.74-4.16-4.74v-.8h14.48v.8c-3.5,0-3.5,1.15-3.5,4.74v5c-3.72,2.26-9.74,2.44-12.49,2.44-9.48,0-16.25-6.33-16.25-14.92,0-9.17,7.22-15.72,16.21-15.72,3.23,0,5.14.53,6.51,1.06s2.21,1.06,3.14,1.06c1.2,0,1.77-1.2,2.17-2.13h.79v10.32h.01Z"/>
    <path class="cls-2" d="M134.22,17.05c0-3.23.58-7.04,3.15-7.04,2.74,0,2.74,4.78,2.74,7.04h-5.89ZM145.43,18.55c.09-4.74-2.57-10.05-7.44-10.05-6.06,0-9.47,5.05-9.47,10.72s2.57,10.71,8.63,10.71c4.29,0,6.51-2.57,8.28-6.15l-.71-.49c-1.06,1.68-2.39,3.32-4.56,3.32-4.03,0-5.8-4.83-5.8-8.06h11.07Z"/>
    <path class="cls-2" d="M156.45,11.69c1.51-1.68,3.46-3.19,5.84-3.19,4.48,0,5.54,3.37,5.54,8.06v8.1c0,1.99,0,3.85,2.22,3.85v.8h-10.28v-.8c1.99,0,1.99-1.86,1.99-3.85v-8.23c0-2.97,0-5-1.95-5-1.37,0-2.66,1.46-3.37,2.66v10.58c0,1.99,0,3.85,2,3.85v.8h-10.28v-.8c2.21,0,2.21-1.86,2.21-3.85v-10.8c0-2.35,0-3.94-2.43-3.94v-.8h8.5v2.57h0Z"/>
    <path class="cls-2" d="M191.4,24.66c0,2.44,0,3.85,2.39,3.85v.8h-8.46v-2.57l-.09.09c-1.37,1.68-3.41,3.1-5.93,3.1-3.5,0-5.36-2.74-5.36-6.46v-9.61c0-2.35,0-3.94-2.44-3.94v-.8h8.5v14.21c0,1.55,0,3.67,1.86,3.67,1.64,0,2.61-1.5,3.45-2.7v-10.45c0-2.35,0-3.94-2.44-3.94v-.8h8.5v15.54h.02Z"/>
    <path class="cls-2" d="M204.29,24.67c0,2.44,0,3.85,2.39,3.85v.8h-10.89v-.8c2.44,0,2.44-1.42,2.44-3.85v-10.8c0-2.35,0-3.94-2.44-3.94v-.8h8.5v15.54ZM201.23-.67c1.82,0,3.32,1.51,3.32,3.32s-1.5,3.32-3.32,3.32-3.32-1.51-3.32-3.32,1.51-3.32,3.32-3.32"/>
    <path class="cls-2" d="M217.13,11.69c1.51-1.68,3.46-3.19,5.85-3.19,4.47,0,5.53,3.37,5.53,8.06v8.1c0,1.99,0,3.85,2.21,3.85v.8h-10.27v-.8c1.99,0,1.99-1.86,1.99-3.85v-8.23c0-2.97,0-5-1.95-5-1.37,0-2.66,1.46-3.37,2.66v10.58c0,1.99,0,3.85,2,3.85v.8h-10.28v-.8c2.21,0,2.21-1.86,2.21-3.85v-10.8c0-2.35,0-3.94-2.43-3.94v-.8h8.5v2.57h0Z"/>
    <path class="cls-2" d="M239.18,17.05c0-3.23.58-7.04,3.14-7.04,2.75,0,2.75,4.78,2.75,7.04h-5.89ZM250.39,18.55c.09-4.74-2.57-10.05-7.44-10.05-6.07,0-9.48,5.05-9.48,10.72s2.57,10.71,8.64,10.71c4.29,0,6.51-2.57,8.28-6.15l-.71-.49c-1.06,1.68-2.39,3.32-4.56,3.32-4.03,0-5.8-4.83-5.8-8.06h11.07Z"/>
    <path class="cls-2" d="M254.36,26.35c0-1.99,1.6-3.59,3.59-3.59s3.59,1.59,3.59,3.59-1.6,3.58-3.59,3.58-3.59-1.59-3.59-3.58"/>
    <path class="cls-2" d="M288.87,1.68v22.1c0,3.59,0,4.74,4.17,4.74v.8h-15.36v-.8c4.16,0,4.16-1.15,4.16-4.74V1.68h-2.39c-3.37,0-5.23,1.06-6.42,6.24h-.8V0h26.26v7.93h-.8c-1.2-5.18-3.06-6.24-6.42-6.24h-2.4Z"/>
    <path class="cls-2" d="M310,11.69c1.5-1.68,3.45-3.19,5.84-3.19,4.47,0,5.53,3.37,5.53,8.06v8.1c0,1.99,0,3.85,2.21,3.85v.8h-10.27v-.8c1.99,0,1.99-1.86,1.99-3.85v-8.23c0-2.97,0-5-1.95-5-1.37,0-2.66,1.46-3.36,2.66v10.58c0,1.99,0,3.85,1.99,3.85v.8h-10.27v-.8c2.21,0,2.21-1.86,2.21-3.85V4.74c0-2.35,0-3.94-2.44-3.94V0h8.5v11.69h.02Z"/>
    <path class="cls-2" d="M332.05,17.05c0-3.23.58-7.04,3.14-7.04,2.75,0,2.75,4.78,2.75,7.04h-5.89ZM343.25,18.55c.08-4.74-2.57-10.05-7.44-10.05-6.07,0-9.48,5.05-9.48,10.72s2.56,10.71,8.63,10.71c4.3,0,6.51-2.57,8.28-6.15l-.71-.49c-1.06,1.68-2.39,3.32-4.56,3.32-4.03,0-5.8-4.83-5.8-8.06h11.08Z"/>
    <path class="cls-2" d="M372.7,28.3c-6.82,0-7.8-8.46-7.8-13.64s.98-13.64,7.8-13.64,7.79,8.46,7.79,13.64-.98,13.64-7.79,13.64M372.7,29.98c8.94,0,15.59-6.24,15.59-15.32s-6.64-15.32-15.59-15.32-15.59,6.24-15.59,15.32,6.64,15.32,15.59,15.32"/>
    <path class="cls-2" d="M399.8,13.68h.09c1.32-2.21,3.45-5.18,6.33-5.18,1.72,0,2.69,1.15,2.69,2.79,0,1.46-.71,3.1-2.39,3.1-2.04,0-2.44-1.68-3.5-1.68-.97,0-3.23,1.2-3.23,7.75v4.21c0,2.44,0,3.85,2.7,3.85v.8h-11.2v-.8c2.44,0,2.44-1.42,2.44-3.85v-10.8c0-2.35,0-3.94-2.44-3.94v-.8h8.51v4.56h0Z"/>
    <path class="cls-2" d="M418.93,24.67c0,2.44,0,3.85,2.39,3.85v.8h-10.89v-.8c2.44,0,2.44-1.42,2.44-3.85v-10.8c0-2.35,0-3.94-2.44-3.94v-.8h8.5v15.54ZM415.87-.67c1.82,0,3.32,1.51,3.32,3.32s-1.5,3.32-3.32,3.32-3.32-1.51-3.32-3.32,1.5-3.32,3.32-3.32"/>
    <path class="cls-2" d="M429.64,16.21c0-5.54,1.46-6.43,2.97-6.43,1.59,0,2.92,1.2,2.92,6.2,0,4.16-.93,5.89-2.97,5.89-1.68,0-2.92-1.33-2.92-5.67M436.37,9.3c-1.37-.53-2.79-.8-4.25-.8-4.3,0-8.55,2.79-8.55,7.4,0,2.61,2.39,5.76,5.31,6.64v.09c-2.08.8-4.6,2.7-4.6,5.31,0,1.77,1.24,3.19,2.65,3.81v.09c-1.37.31-3.36,1.15-3.36,2.97,0,3.63,6.64,4.07,9.25,4.07,8.82,0,10.41-4.34,10.41-6.55,0-5.27-5.05-5.27-9.92-5.27-3.72,0-5.05,0-5.05-1.77,0-.8.58-2.13,2.13-2.13h2.56c4.78,0,8.32-3.32,8.32-6.69,0-2.12-.71-3.59-1.95-4.74h3.85v-2.44h-6.82.02ZM439.69,34.32c0,2.66-4.52,3.06-6.37,3.06s-6.12-.22-6.12-2.92c0-1.51.76-2.17,4.61-2.17,6.9,0,7.88.66,7.88,2.04"/>
    <path class="cls-2" d="M453.38,24.67c0,2.44,0,3.85,2.39,3.85v.8h-10.89v-.8c2.44,0,2.44-1.42,2.44-3.85v-10.8c0-2.35,0-3.94-2.44-3.94v-.8h8.5v15.54ZM450.33-.67c1.81,0,3.31,1.51,3.31,3.32s-1.51,3.32-3.31,3.32-3.32-1.51-3.32-3.32,1.5-3.32,3.32-3.32"/>
    <path class="cls-2" d="M466.22,11.69c1.5-1.68,3.45-3.19,5.84-3.19,4.47,0,5.54,3.37,5.54,8.06v8.1c0,1.99,0,3.85,2.22,3.85v.8h-10.28v-.8c1.99,0,1.99-1.86,1.99-3.85v-8.23c0-2.97,0-5-1.95-5-1.37,0-2.65,1.46-3.37,2.66v10.58c0,1.99,0,3.85,1.99,3.85v.8h-10.27v-.8c2.21,0,2.21-1.86,2.21-3.85v-10.8c0-2.35,0-3.94-2.43-3.94v-.8h8.51v2.57h0Z"/>
    <path class="cls-2" d="M493.59,25.11c-.75.62-1.41,1.2-2.44,1.2-1.37,0-2.35-.97-2.35-2.35,0-2.39,2.88-4.56,4.78-5.62v6.77h.01ZM493.59,16.52c-8.19,3.85-10.63,5.62-10.63,9.25,0,2.52,1.73,4.16,4.03,4.16,2.48,0,4.87-1.64,6.59-3.23.18,2.21,1.81,3.23,3.94,3.23s3.72-1.29,4.83-3.05l-.62-.49c-.31.4-.62.8-1.15.8-.93,0-.93-.97-.93-2.04v-9.83c0-4.34-2.3-6.82-7.35-6.82-3.33,0-8.94,1.77-8.94,5.85,0,1.68,1.59,2.79,3.14,2.79s2.92-.93,2.92-2.61c0-1.42-1.41-1.95-1.41-2.79,0-1.19,1.9-1.55,2.82-1.55,1.16,0,2.75.62,2.75,2.75v3.59h0Z"/>
    <path class="cls-2" d="M512.45,24.66c0,2.44,0,3.85,2.39,3.85v.8h-10.89v-.8c2.43,0,2.43-1.42,2.43-3.85V4.74c0-2.35,0-3.94-2.43-3.94V0h8.5v24.66Z"/>
    <path class="cls-2" d="M517.37,26.35c0-1.99,1.6-3.59,3.58-3.59s3.59,1.59,3.59,3.59-1.59,3.58-3.59,3.58-3.58-1.59-3.58-3.58"/>
  </g>
  <path class="cls-1" d="M478.71,156.78h1.44c.69,0,1.16-.11,1.41-.31.26-.2.38-.47.38-.8,0-.21-.06-.41-.19-.58-.12-.17-.29-.29-.5-.39-.21-.08-.62-.12-1.19-.12h-1.36v2.21h0ZM477.54,160.87v-7.26h2.52c.86,0,1.47.07,1.86.19.38.13.69.37.91.71.23.33.36.69.36,1.06,0,.54-.21.99-.58,1.39-.39.38-.9.61-1.54.66.26.11.47.22.63.38.3.29.65.77,1.09,1.45l.88,1.43h-1.45l-.66-1.15c-.51-.89-.91-1.46-1.22-1.7-.21-.17-.52-.25-.94-.24h-.69v3.09h-1.17,0ZM480.5,151.48c-.95,0-1.87.24-2.78.73-.9.49-1.6,1.18-2.1,2.09-.52.91-.77,1.84-.77,2.82s.24,1.91.75,2.8,1.2,1.59,2.11,2.09c.89.5,1.83.75,2.8.75s1.92-.25,2.82-.75c.89-.5,1.58-1.19,2.09-2.09.5-.89.75-1.82.75-2.8s-.25-1.91-.77-2.82c-.51-.91-1.22-1.6-2.11-2.09-.91-.49-1.83-.73-2.78-.73M480.5,150.37c1.14,0,2.25.29,3.32.86,1.09.59,1.93,1.42,2.53,2.5.61,1.08.92,2.21.92,3.38s-.3,2.29-.9,3.36c-.59,1.08-1.43,1.91-2.5,2.51-1.08.59-2.21.89-3.38.89s-2.3-.3-3.37-.89c-1.08-.6-1.91-1.43-2.5-2.51-.6-1.07-.89-2.19-.89-3.36s.29-2.31.9-3.38c.61-1.08,1.46-1.91,2.54-2.5,1.09-.58,2.19-.86,3.33-.86"/>
  <g>
    <path class="cls-2" d="M448.2,109.3c-1-.41-1.89-.77-2.59-1.09l-.24-.11-2.21,4.54.2.13c.81.51,1.83.94,2.88,1.36l-7.7,16.21-3.21-1.44-2.22,4.58,11.01,5.22,2.23-4.58-3.11-1.55,2.88-6.17,2.84,1.42c1.27.78,1.88,1.92.99,5.15-1.74,6.94.42,8.75,6.13,11.5l.24.12,2.23-4.71-2.89-1.32c-1.4-.7-1.05-2.48-.62-4.74.29-1.52.63-3.23.45-4.91,2.38-.53,4.42-2.17,5.49-4.42.35-.72.59-1.39.73-2.04l.04-.32h-.01c1.12-6.9-8.03-10.59-13.53-12.81v-.02ZM451.06,116.12c2.23,1.03,4.76,2.41,5.37,4.1.22.61.19,1.24-.1,1.9l-.09.14c-.38.74-1.22,1.12-2.5,1.12-2.13,0-4.7-1.01-5.45-1.33l2.77-5.94h0Z"/>
    <polygon class="cls-2" points="120.75 94.47 108.61 99.1 110.42 103.75 113.86 102.46 114.17 118 103.92 106.29 107.47 104.9 105.63 100.02 93.48 104.7 95.34 109.52 98.73 108.27 111.07 122.56 114.9 126.9 119.38 125.21 119.05 100.97 119.09 100.97 119.08 100.66 122.48 99.41 120.75 94.47"/>
    <path class="cls-2" d="M154.07,106.29l-.85-2.77-4.96,1.48,1.44,4.77-6.9,2.06-1.84-6.13,6.32-1.88-.87-2.92h.03l-.62-1.95-6.34,1.8-1.8-6.01,6.9-2.06,1.33,4.66,5.07-1.48-.08-.26c-.9-2.91-1.23-4.13-1.66-5.66-.26-.92-.54-1.96-1-3.55l-.08-.26-20.48,6.14,1.48,4.96,3.44-1,5.13,17.1-3.21,1,1.48,4.96,20.15-6.03-.08-.26c-.94-3.24-1.29-4.38-2-6.7h0Z"/>
    <path class="cls-2" d="M428.03,100.56l-.44-.2c-.5-.26-1.04-.5-1.59-.7-3.95-1.45-8.44-1.19-12.19.69v.02c-3.15,1.66-5.6,4.4-6.88,7.71-1.84,4.85-.92,10.39,2.39,14.47l.15.1c1.58,1.83,3.62,3.26,5.9,4.14,1.66.62,3.39.94,5.16.94,4.34,0,8.45-1.88,11.14-5.08l.21-.1c1-1.21,1.81-2.58,2.39-4.08,2.66-7.01.04-14.54-6.24-17.92h0ZM411.87,109.94c1.38-3.65,4.91-6.1,8.78-6.1,1.12,0,2.23.2,3.29.6,4.84,1.93,7.31,7.4,5.5,12.18-.97,2.44-2.86,4.34-5.2,5.33l-.4.02c-2.02.73-4.15.75-6.35,0l-.32.02c-2.36-.92-4.2-2.69-5.2-4.99-.98-2.25-1.01-4.75-.1-7.04v-.02Z"/>
    <path class="cls-2" d="M394.36,89.19l-.44-.21c-.5-.26-1.03-.49-1.58-.7-3.94-1.45-8.44-1.18-12.2.69v.02c-3.15,1.66-5.59,4.4-6.88,7.71-1.83,4.85-.92,10.4,2.38,14.46l.15.1c1.62,1.87,3.6,3.26,5.89,4.15,1.66.62,3.39.94,5.16.94,4.34,0,8.46-1.89,11.15-5.08l.21-.1c1-1.21,1.81-2.58,2.39-4.08,2.65-7.02.03-14.55-6.25-17.91h.02ZM378.2,98.57c1.38-3.65,4.9-6.1,8.77-6.1,1.12,0,2.23.2,3.29.6,4.92,1.96,7.34,7.32,5.5,12.18-.97,2.43-2.85,4.33-5.19,5.33l-.41.02c-2.02.73-4.15.75-6.35,0h-.33c-2.36-.91-4.2-2.68-5.2-4.98-.97-2.25-1.01-4.75-.09-7.04h.01Z"/>
    <path class="cls-2" d="M186.65,100.86c-.66.16-1.2-.02-1.74-.58l-.09-.07c-.55-.62-1.04-1.58-1.55-2.6-.71-1.39-1.5-2.96-2.7-4.19,1.6-1.83,2.22-4.39,1.67-6.92-.85-4.21-3.76-6.34-8.66-6.34-3.58,0-7.5,1.08-10.66,1.95-1.08.3-2.05.57-2.85.74l-.26.06,1.11,5.07.26-.06c.92-.21,2.03-.5,3.07-.81l3.77,17.63-3.44.66,1.11,5.18,11.83-2.55-.99-5.06-3.44.67-1.44-6.57,2.51-.51c2.17-.42,3.2.18,4.59,3.39l.37.85h0c1.77,3.72,3.7,5.17,6.84,5.17,1.17,0,2.58-.19,4.57-.62l.26-.06-1.11-5.05-3.03.61h0ZM176.81,89.73c-1.08,1.56-3.97,2.19-6.16,2.52l-1.34-6.48c1.79-.38,3.07-.55,4.13-.55,2.2,0,3.39.76,3.72,2.4.18.82.06,1.51-.36,2.12h0Z"/>
    <polygon class="cls-2" points="220.24 95.91 218 79.06 218.04 79.06 217.91 78.12 221.35 77.67 220.73 72.49 208.68 74.12 209.23 78.8 209.25 79.42 212.7 78.76 213.61 85.11 203.61 86.38 202.79 80.03 206.23 79.58 205.49 74.58 193.55 76.2 194.17 81.21 197.61 80.66 199.98 98.53 196.54 99.09 197.28 104.02 209.22 102.39 208.6 97.47 205.16 97.91 204.24 91.56 214.24 90.18 215.06 96.53 211.62 96.98 212.07 100.15 212.03 100.15 212.33 102.02 224.42 100.53 223.67 95.47 220.24 95.91"/>
    <path class="cls-2" d="M253.45,94.25l-.25-5.64-5.19.25.22,4.99-7.24.41-.41-6.35,6.65-.44-.24-5.19-6.66.45-.31-6.28,7.34-.42.22,4.71,5.19-.38-.11-1.9c-.13-2.55-.2-3.49-.26-4.4-.05-.77-.11-1.52-.2-3.21v-.26l-21.29,1.14.37,5.19,3.54-.22.97,17.81-3.44.22.37,5.19,20.93-1.14v-.26c-.15-2.6-.16-2.95-.22-4.27h.02Z"/>
    <path class="cls-2" d="M281.03,81.79l-3.92-11.05h-.18s-5.62-.23-8.38-.23h-.26l-.13,5.19h3.23l-7.2,17.69h-3.29l-.13,5.19,11.62.23.13-5.18-2.76-.1.99-2.26,8.18.21.81,2.25h-2.77l-.12,5.18,11.62.23.12-5.18-3.29-.11c-1.17-3.27-2.78-7.84-4.27-12.05h0ZM277.07,86.18l-4.33-.09,2.26-5.65,2.07,5.74h0Z"/>
    <path class="cls-2" d="M355.91,79.52l-4.74-.94-6.02-1.06-1.17,4.95.28.06c.55.12,1.18.21,1.83.3.44.06.88.13,1.33.2l-3.63,17.63c-.97-.26-2.23-.59-3-.76l-.22-.05-1.25,5.16,10.88,2.17c.97.2,1.95.3,2.93.3,5.06,0,9.79-2.67,12.35-6.96l.2-.43h-.02c.62-1.18,1.07-2.41,1.33-3.69.77-3.72.04-7.53-2.06-10.72s-5.3-5.37-9.02-6.14v-.02ZM349.24,100.07l3.28-15.92c4.81,1.23,10.81,3.76,9.36,11.12-.44,2.09-1.26,3.67-2.49,4.81l-.16.07c-2.19,1.82-5.4,2.32-10.32,1.53l.32-1.6h.01Z"/>
    <path class="cls-2" d="M308.7,72.48l-4.82-.39-6.1-.35-.59,5.05.28.03c.58.06,1.21.07,1.88.09.43,0,.87.02,1.32.04l-1.53,17.93c-1-.14-2.29-.33-3.07-.4l-.23-.02-.63,5.27,11.06.87c.42.04.83.05,1.25.05,5.7,0,10.86-3.32,13.14-8.46l.17-.48h-.02c.48-1.24.77-2.52.88-3.8.33-3.79-.85-7.48-3.3-10.41-2.46-2.92-5.9-4.71-9.68-5.04v.02ZM304.48,93.71l1.39-16.24c4.92.67,11.18,2.47,10.61,9.94-.19,2.12-.81,3.78-1.92,5.07l-.14.08c-1.76,1.85-4.61,2.76-8.69,2.76-.46,0-.91-.01-1.37-.03l.13-1.58h0Z"/>
    <path class="cls-2" d="M90.1,112.41l-.44-.2c-.5-.26-1.03-.49-1.58-.7-3.94-1.45-8.45-1.18-12.2.69v.02c-3.14,1.65-5.58,4.39-6.87,7.71-1.84,4.85-.92,10.39,2.38,14.47l.15.1c1.58,1.83,3.62,3.27,5.89,4.14,1.66.62,3.4.94,5.17.94,4.34,0,8.46-1.89,11.14-5.08l.21-.1c1.01-1.21,1.81-2.58,2.4-4.08,2.65-7.02.03-14.55-6.24-17.92h0ZM73.95,121.79c1.37-3.65,4.9-6.1,8.77-6.1,1.12,0,2.23.2,3.29.6,4.84,1.93,7.31,7.39,5.5,12.18-.98,2.44-2.86,4.34-5.2,5.32l-.4.02c-2.03.73-4.15.76-6.35,0l-.32.02c-2.36-.92-4.21-2.69-5.2-4.99-.98-2.25-1.01-4.75-.09-7.04h0Z"/>
  </g>
</svg>